<svg width="112" height="18" viewBox="0 0 112 18" fill="none" xmlns="http://www.w3.org/2000/svg">
<mask id="path-1-outside-1_10110_154" maskUnits="userSpaceOnUse" x="0" y="2" width="84" height="13" fill="black">
<rect fill="white" y="2" width="84" height="13"/>
<path d="M12.36 6.89V10.61C12.36 11.68 12.39 12.41 12.45 12.8C12.52 13.19 12.615 13.435 12.735 13.535C12.965 13.725 13.33 13.82 13.83 13.82L13.86 14H9.84L9.87 13.82C10.36 13.82 10.72 13.73 10.95 13.55C11.14 13.4 11.25 12.91 11.28 12.08C11.3 11.75 11.31 11.26 11.31 10.61V4.265L7.11 13.85L2.775 5.735V10.58C2.775 11.58 2.82 12.305 2.91 12.755C3.01 13.195 3.165 13.485 3.375 13.625C3.585 13.755 3.935 13.82 4.425 13.82L4.455 14H0.765L0.795 13.82C1.165 13.82 1.44 13.795 1.62 13.745C1.81 13.685 1.97 13.535 2.1 13.295C2.23 13.055 2.31 12.735 2.34 12.335C2.38 11.935 2.4 11.35 2.4 10.58V6.905C2.4 6.135 2.38 5.55 2.34 5.15C2.31 4.75 2.23 4.43 2.1 4.19C1.97 3.95 1.81 3.805 1.62 3.755C1.44 3.695 1.165 3.665 0.795 3.665L0.765 3.5H2.775L7.41 12.245L11.235 3.5H13.86L13.83 3.665C13.33 3.665 12.965 3.76 12.735 3.95C12.485 4.16 12.36 5.14 12.36 6.89ZM15.2045 10.46C15.2045 9.41 15.5045 8.53 16.1045 7.82C16.7045 7.11 17.5195 6.755 18.5495 6.755C19.5795 6.755 20.4095 7.11 21.0395 7.82C21.6695 8.53 21.9845 9.41 21.9845 10.46C21.9845 11.51 21.6795 12.39 21.0695 13.1C20.4695 13.8 19.6545 14.15 18.6245 14.15C17.5945 14.15 16.7645 13.795 16.1345 13.085C15.5145 12.375 15.2045 11.5 15.2045 10.46ZM16.9295 12.89C17.3295 13.53 17.8945 13.85 18.6245 13.85C19.3545 13.85 19.9045 13.535 20.2745 12.905C20.6545 12.275 20.8445 11.465 20.8445 10.475C20.8445 9.475 20.6445 8.655 20.2445 8.015C19.8445 7.375 19.2795 7.055 18.5495 7.055C17.8295 7.055 17.2795 7.375 16.8995 8.015C16.5295 8.645 16.3445 9.455 16.3445 10.445C16.3445 11.435 16.5395 12.25 16.9295 12.89ZM27.8079 6.68C28.0579 6.68 28.2779 6.735 28.4679 6.845C28.6579 6.955 28.7529 7.105 28.7529 7.295C28.7529 7.485 28.6929 7.635 28.5729 7.745C28.4529 7.855 28.3179 7.91 28.1679 7.91C28.0179 7.91 27.8279 7.845 27.5979 7.715C27.3779 7.585 27.1429 7.52 26.8929 7.52C26.5029 7.52 26.1829 7.88 25.9329 8.6C25.6929 9.32 25.5729 10.155 25.5729 11.105C25.5729 12.385 25.6379 13.16 25.7679 13.43C25.8079 13.52 25.8829 13.605 25.9929 13.685C26.1029 13.755 26.2179 13.795 26.3379 13.805C26.4579 13.815 26.6279 13.82 26.8479 13.82L26.8779 14H23.2329L23.2629 13.82C23.5829 13.82 23.8129 13.805 23.9529 13.775C24.1029 13.735 24.2279 13.61 24.3279 13.4C24.4279 13.19 24.4829 12.93 24.4929 12.62C24.5129 12.3 24.5229 11.795 24.5229 11.105V10.235C24.5229 8.845 24.4829 8.055 24.4029 7.865C24.3329 7.675 24.2679 7.525 24.2079 7.415C24.1479 7.305 24.0579 7.23 23.9379 7.19C23.7179 7.13 23.4279 7.1 23.0679 7.1L23.0379 6.935C23.8879 6.815 24.7329 6.755 25.5729 6.755V8.96C25.6829 8.25 25.9279 7.695 26.3079 7.295C26.6979 6.885 27.1979 6.68 27.8079 6.68ZM35.2684 10.205H30.3484V10.46C30.3484 11.52 30.5734 12.33 31.0234 12.89C31.4734 13.44 32.0334 13.715 32.7034 13.715C33.7034 13.715 34.4234 13.315 34.8634 12.515L35.0884 12.635C34.5684 13.645 33.6984 14.15 32.4784 14.15C31.5784 14.15 30.8084 13.825 30.1684 13.175C29.5284 12.525 29.2084 11.65 29.2084 10.55C29.2084 9.44 29.4884 8.53 30.0484 7.82C30.6184 7.11 31.3734 6.755 32.3134 6.755C33.2634 6.755 33.9934 7.08 34.5034 7.73C35.0134 8.37 35.2684 9.195 35.2684 10.205ZM32.3584 7.055C31.7784 7.055 31.3184 7.305 30.9784 7.805C30.6484 8.295 30.4484 8.95 30.3784 9.77H34.1134C34.0434 7.96 33.4584 7.055 32.3584 7.055ZM45.4405 12.335C45.2805 12.855 45.0055 13.29 44.6155 13.64C44.2355 13.98 43.7655 14.15 43.2055 14.15C42.6555 14.15 42.1955 14.04 41.8255 13.82C41.4555 13.6 41.1705 13.31 40.9705 12.95C40.5705 12.26 40.3705 11.42 40.3705 10.43C40.3705 9.44 40.7105 8.58 41.3905 7.85C42.0705 7.12 42.9805 6.755 44.1205 6.755C44.6205 6.755 45.0755 6.815 45.4855 6.935V5.51C45.4855 4.76 45.4605 4.255 45.4105 3.995C45.3605 3.725 45.2805 3.56 45.1705 3.5C44.9705 3.38 44.6555 3.32 44.2255 3.32L44.1955 3.155C44.9155 3.035 45.6955 2.975 46.5355 2.975V10.67C46.5355 11.78 46.5705 12.51 46.6405 12.86C46.7105 13.2 46.8805 13.37 47.1505 13.37C47.3205 13.37 47.5455 13.3 47.8255 13.16L47.9005 13.31C47.8205 13.37 47.7155 13.445 47.5855 13.535C47.4555 13.615 47.1905 13.725 46.7905 13.865C46.3905 14.005 46.0055 14.075 45.6355 14.075C45.5055 13.535 45.4405 12.955 45.4405 12.335ZM41.8705 12.59C41.9905 12.92 42.1755 13.185 42.4255 13.385C42.6855 13.585 42.9955 13.685 43.3555 13.685C43.7255 13.685 44.0555 13.56 44.3455 13.31C44.6455 13.06 44.8705 12.74 45.0205 12.35C45.3305 11.6 45.4855 10.825 45.4855 10.025V7.73C45.0555 7.39 44.5855 7.22 44.0755 7.22C43.5655 7.22 43.1405 7.33 42.8005 7.55C42.4605 7.77 42.2005 8.06 42.0205 8.42C41.6805 9.09 41.5105 9.805 41.5105 10.565C41.5105 11.295 41.6305 11.97 41.8705 12.59ZM54.8534 10.205H49.9334V10.46C49.9334 11.52 50.1584 12.33 50.6084 12.89C51.0584 13.44 51.6184 13.715 52.2884 13.715C53.2884 13.715 54.0084 13.315 54.4484 12.515L54.6734 12.635C54.1534 13.645 53.2834 14.15 52.0634 14.15C51.1634 14.15 50.3934 13.825 49.7534 13.175C49.1134 12.525 48.7934 11.65 48.7934 10.55C48.7934 9.44 49.0734 8.53 49.6334 7.82C50.2034 7.11 50.9584 6.755 51.8984 6.755C52.8484 6.755 53.5784 7.08 54.0884 7.73C54.5984 8.37 54.8534 9.195 54.8534 10.205ZM51.9434 7.055C51.3634 7.055 50.9034 7.305 50.5634 7.805C50.2334 8.295 50.0334 8.95 49.9634 9.77H53.6984C53.6284 7.96 53.0434 7.055 51.9434 7.055ZM58.2455 6.905H60.0905V7.235H58.2455V12.95C58.2455 13.16 58.2955 13.33 58.3955 13.46C58.4955 13.58 58.6255 13.64 58.7855 13.64C59.1455 13.64 59.5705 13.535 60.0605 13.325L60.0905 13.49C59.3905 13.93 58.7705 14.15 58.2305 14.15C57.8805 14.15 57.6205 14.065 57.4505 13.895C57.2805 13.725 57.1955 13.43 57.1955 13.01V7.235H56.2955V6.905C56.8355 6.905 57.2105 6.755 57.4205 6.455C57.6405 6.145 57.8055 5.69 57.9155 5.09L58.2455 5.06V6.905ZM66.5755 9.155V10.67C66.5755 11.78 66.6105 12.51 66.6805 12.86C66.7505 13.2 66.9205 13.37 67.1905 13.37C67.3605 13.37 67.5855 13.3 67.8655 13.16L67.9405 13.31C67.8605 13.37 67.7555 13.445 67.6255 13.535C67.4955 13.615 67.2305 13.725 66.8305 13.865C66.4305 14.005 66.0455 14.075 65.6755 14.075C65.5755 13.655 65.5255 12.985 65.5255 12.065C65.3055 12.685 65.0155 13.19 64.6555 13.58C64.3055 13.96 63.8155 14.15 63.1855 14.15C62.5555 14.15 62.0555 13.985 61.6855 13.655C61.3255 13.315 61.1455 12.855 61.1455 12.275C61.1455 10.665 62.6055 9.855 65.5255 9.845V9.305C65.5255 8.585 65.4205 8.035 65.2105 7.655C65.0005 7.275 64.6105 7.085 64.0405 7.085C63.7205 7.085 63.4605 7.165 63.2605 7.325C63.0605 7.485 62.9255 7.66 62.8555 7.85C62.6855 8.37 62.4305 8.63 62.0905 8.63C61.7605 8.63 61.5955 8.445 61.5955 8.075C61.5955 7.695 61.8455 7.38 62.3455 7.13C62.8455 6.88 63.4505 6.755 64.1605 6.755C64.8705 6.755 65.4505 6.96 65.9005 7.37C66.3505 7.77 66.5755 8.365 66.5755 9.155ZM62.2855 12.335C62.2855 12.725 62.3805 13.05 62.5705 13.31C62.7605 13.56 63.0605 13.685 63.4705 13.685C63.8905 13.685 64.2705 13.485 64.6105 13.085C64.9505 12.675 65.1805 12.225 65.3005 11.735C65.4305 11.235 65.5055 10.72 65.5255 10.19C64.4155 10.2 63.5955 10.405 63.0655 10.805C62.5455 11.205 62.2855 11.715 62.2855 12.335ZM70.1653 4.955C69.9953 4.785 69.9103 4.585 69.9103 4.355C69.9103 4.125 69.9953 3.925 70.1653 3.755C70.3353 3.585 70.5353 3.5 70.7653 3.5C70.9953 3.5 71.1953 3.585 71.3653 3.755C71.5353 3.925 71.6203 4.125 71.6203 4.355C71.6203 4.585 71.5353 4.785 71.3653 4.955C71.1953 5.125 70.9953 5.21 70.7653 5.21C70.5353 5.21 70.3353 5.125 70.1653 4.955ZM71.3353 6.755V11.525C71.3353 12.575 71.3953 13.22 71.5153 13.46C71.6453 13.7 72.0053 13.82 72.5953 13.82L72.6253 14H68.9653L68.9953 13.82C69.5953 13.82 69.9603 13.7 70.0903 13.46C70.2203 13.21 70.2853 12.555 70.2853 11.495V10.445C70.2853 9.285 70.2503 8.52 70.1803 8.15C70.1203 7.77 70.0303 7.525 69.9103 7.415C69.6703 7.195 69.3003 7.085 68.8003 7.085L68.7703 6.92C69.6403 6.81 70.4953 6.755 71.3353 6.755ZM75.8261 2.96V11.39C75.8261 12.5 75.8911 13.185 76.0211 13.445C76.1511 13.695 76.5111 13.82 77.1011 13.82L77.1311 14H73.4561L73.4861 13.82C74.0861 13.82 74.4511 13.695 74.5811 13.445C74.7111 13.195 74.7761 12.51 74.7761 11.39V5.66C74.7761 4.55 74.7161 3.88 74.5961 3.65C74.5561 3.58 74.4811 3.51 74.3711 3.44C74.2611 3.37 74.1411 3.33 74.0111 3.32C73.8911 3.31 73.7161 3.305 73.4861 3.305L73.4561 3.14C74.2061 3.02 74.9961 2.96 75.8261 2.96ZM78.6581 11.765C78.6581 12.415 78.8331 12.905 79.1831 13.235C79.5331 13.555 79.9481 13.715 80.4281 13.715C80.9181 13.715 81.3131 13.605 81.6131 13.385C81.9131 13.165 82.0631 12.87 82.0631 12.5C82.0631 12.12 81.9331 11.81 81.6731 11.57C81.4231 11.33 81.1181 11.135 80.7581 10.985C80.3981 10.835 80.0331 10.68 79.6631 10.52C79.3031 10.36 78.9931 10.125 78.7331 9.815C78.4831 9.505 78.3581 9.09 78.3581 8.57C78.3581 8.05 78.5881 7.62 79.0481 7.28C79.5181 6.93 80.0581 6.755 80.6681 6.755C81.5381 6.755 82.2181 6.895 82.7081 7.175C82.7081 7.635 82.6481 8.275 82.5281 9.095L82.3481 9.05C82.3481 8.39 82.1981 7.91 81.8981 7.61C81.5981 7.31 81.2331 7.16 80.8031 7.16C80.3831 7.16 80.0431 7.27 79.7831 7.49C79.5331 7.71 79.4081 8.01 79.4081 8.39C79.4081 8.76 79.5331 9.06 79.7831 9.29C80.0431 9.51 80.3531 9.695 80.7131 9.845C81.0731 9.995 81.4331 10.155 81.7931 10.325C82.1631 10.485 82.4731 10.72 82.7231 11.03C82.9831 11.33 83.1131 11.7 83.1131 12.14C83.1131 12.78 82.8631 13.275 82.3631 13.625C81.8631 13.975 81.2031 14.15 80.3831 14.15C79.5731 14.15 78.8881 13.935 78.3281 13.505C78.3281 13.005 78.3781 12.415 78.4781 11.735L78.6581 11.765Z"/>
</mask>
<path d="M12.36 6.89V10.61C12.36 11.68 12.39 12.41 12.45 12.8C12.52 13.19 12.615 13.435 12.735 13.535C12.965 13.725 13.33 13.82 13.83 13.82L13.86 14H9.84L9.87 13.82C10.36 13.82 10.72 13.73 10.95 13.55C11.14 13.4 11.25 12.91 11.28 12.08C11.3 11.75 11.31 11.26 11.31 10.61V4.265L7.11 13.85L2.775 5.735V10.58C2.775 11.58 2.82 12.305 2.91 12.755C3.01 13.195 3.165 13.485 3.375 13.625C3.585 13.755 3.935 13.82 4.425 13.82L4.455 14H0.765L0.795 13.82C1.165 13.82 1.44 13.795 1.62 13.745C1.81 13.685 1.97 13.535 2.1 13.295C2.23 13.055 2.31 12.735 2.34 12.335C2.38 11.935 2.4 11.35 2.4 10.58V6.905C2.4 6.135 2.38 5.55 2.34 5.15C2.31 4.75 2.23 4.43 2.1 4.19C1.97 3.95 1.81 3.805 1.62 3.755C1.44 3.695 1.165 3.665 0.795 3.665L0.765 3.5H2.775L7.41 12.245L11.235 3.5H13.86L13.83 3.665C13.33 3.665 12.965 3.76 12.735 3.95C12.485 4.16 12.36 5.14 12.36 6.89ZM15.2045 10.46C15.2045 9.41 15.5045 8.53 16.1045 7.82C16.7045 7.11 17.5195 6.755 18.5495 6.755C19.5795 6.755 20.4095 7.11 21.0395 7.82C21.6695 8.53 21.9845 9.41 21.9845 10.46C21.9845 11.51 21.6795 12.39 21.0695 13.1C20.4695 13.8 19.6545 14.15 18.6245 14.15C17.5945 14.15 16.7645 13.795 16.1345 13.085C15.5145 12.375 15.2045 11.5 15.2045 10.46ZM16.9295 12.89C17.3295 13.53 17.8945 13.85 18.6245 13.85C19.3545 13.85 19.9045 13.535 20.2745 12.905C20.6545 12.275 20.8445 11.465 20.8445 10.475C20.8445 9.475 20.6445 8.655 20.2445 8.015C19.8445 7.375 19.2795 7.055 18.5495 7.055C17.8295 7.055 17.2795 7.375 16.8995 8.015C16.5295 8.645 16.3445 9.455 16.3445 10.445C16.3445 11.435 16.5395 12.25 16.9295 12.89ZM27.8079 6.68C28.0579 6.68 28.2779 6.735 28.4679 6.845C28.6579 6.955 28.7529 7.105 28.7529 7.295C28.7529 7.485 28.6929 7.635 28.5729 7.745C28.4529 7.855 28.3179 7.91 28.1679 7.91C28.0179 7.91 27.8279 7.845 27.5979 7.715C27.3779 7.585 27.1429 7.52 26.8929 7.52C26.5029 7.52 26.1829 7.88 25.9329 8.6C25.6929 9.32 25.5729 10.155 25.5729 11.105C25.5729 12.385 25.6379 13.16 25.7679 13.43C25.8079 13.52 25.8829 13.605 25.9929 13.685C26.1029 13.755 26.2179 13.795 26.3379 13.805C26.4579 13.815 26.6279 13.82 26.8479 13.82L26.8779 14H23.2329L23.2629 13.82C23.5829 13.82 23.8129 13.805 23.9529 13.775C24.1029 13.735 24.2279 13.61 24.3279 13.4C24.4279 13.19 24.4829 12.93 24.4929 12.62C24.5129 12.3 24.5229 11.795 24.5229 11.105V10.235C24.5229 8.845 24.4829 8.055 24.4029 7.865C24.3329 7.675 24.2679 7.525 24.2079 7.415C24.1479 7.305 24.0579 7.23 23.9379 7.19C23.7179 7.13 23.4279 7.1 23.0679 7.1L23.0379 6.935C23.8879 6.815 24.7329 6.755 25.5729 6.755V8.96C25.6829 8.25 25.9279 7.695 26.3079 7.295C26.6979 6.885 27.1979 6.68 27.8079 6.68ZM35.2684 10.205H30.3484V10.46C30.3484 11.52 30.5734 12.33 31.0234 12.89C31.4734 13.44 32.0334 13.715 32.7034 13.715C33.7034 13.715 34.4234 13.315 34.8634 12.515L35.0884 12.635C34.5684 13.645 33.6984 14.15 32.4784 14.15C31.5784 14.15 30.8084 13.825 30.1684 13.175C29.5284 12.525 29.2084 11.65 29.2084 10.55C29.2084 9.44 29.4884 8.53 30.0484 7.82C30.6184 7.11 31.3734 6.755 32.3134 6.755C33.2634 6.755 33.9934 7.08 34.5034 7.73C35.0134 8.37 35.2684 9.195 35.2684 10.205ZM32.3584 7.055C31.7784 7.055 31.3184 7.305 30.9784 7.805C30.6484 8.295 30.4484 8.95 30.3784 9.77H34.1134C34.0434 7.96 33.4584 7.055 32.3584 7.055ZM45.4405 12.335C45.2805 12.855 45.0055 13.29 44.6155 13.64C44.2355 13.98 43.7655 14.15 43.2055 14.15C42.6555 14.15 42.1955 14.04 41.8255 13.82C41.4555 13.6 41.1705 13.31 40.9705 12.95C40.5705 12.26 40.3705 11.42 40.3705 10.43C40.3705 9.44 40.7105 8.58 41.3905 7.85C42.0705 7.12 42.9805 6.755 44.1205 6.755C44.6205 6.755 45.0755 6.815 45.4855 6.935V5.51C45.4855 4.76 45.4605 4.255 45.4105 3.995C45.3605 3.725 45.2805 3.56 45.1705 3.5C44.9705 3.38 44.6555 3.32 44.2255 3.32L44.1955 3.155C44.9155 3.035 45.6955 2.975 46.5355 2.975V10.67C46.5355 11.78 46.5705 12.51 46.6405 12.86C46.7105 13.2 46.8805 13.37 47.1505 13.37C47.3205 13.37 47.5455 13.3 47.8255 13.16L47.9005 13.31C47.8205 13.37 47.7155 13.445 47.5855 13.535C47.4555 13.615 47.1905 13.725 46.7905 13.865C46.3905 14.005 46.0055 14.075 45.6355 14.075C45.5055 13.535 45.4405 12.955 45.4405 12.335ZM41.8705 12.59C41.9905 12.92 42.1755 13.185 42.4255 13.385C42.6855 13.585 42.9955 13.685 43.3555 13.685C43.7255 13.685 44.0555 13.56 44.3455 13.31C44.6455 13.06 44.8705 12.74 45.0205 12.35C45.3305 11.6 45.4855 10.825 45.4855 10.025V7.73C45.0555 7.39 44.5855 7.22 44.0755 7.22C43.5655 7.22 43.1405 7.33 42.8005 7.55C42.4605 7.77 42.2005 8.06 42.0205 8.42C41.6805 9.09 41.5105 9.805 41.5105 10.565C41.5105 11.295 41.6305 11.97 41.8705 12.59ZM54.8534 10.205H49.9334V10.46C49.9334 11.52 50.1584 12.33 50.6084 12.89C51.0584 13.44 51.6184 13.715 52.2884 13.715C53.2884 13.715 54.0084 13.315 54.4484 12.515L54.6734 12.635C54.1534 13.645 53.2834 14.15 52.0634 14.15C51.1634 14.15 50.3934 13.825 49.7534 13.175C49.1134 12.525 48.7934 11.65 48.7934 10.55C48.7934 9.44 49.0734 8.53 49.6334 7.82C50.2034 7.11 50.9584 6.755 51.8984 6.755C52.8484 6.755 53.5784 7.08 54.0884 7.73C54.5984 8.37 54.8534 9.195 54.8534 10.205ZM51.9434 7.055C51.3634 7.055 50.9034 7.305 50.5634 7.805C50.2334 8.295 50.0334 8.95 49.9634 9.77H53.6984C53.6284 7.96 53.0434 7.055 51.9434 7.055ZM58.2455 6.905H60.0905V7.235H58.2455V12.95C58.2455 13.16 58.2955 13.33 58.3955 13.46C58.4955 13.58 58.6255 13.64 58.7855 13.64C59.1455 13.64 59.5705 13.535 60.0605 13.325L60.0905 13.49C59.3905 13.93 58.7705 14.15 58.2305 14.15C57.8805 14.15 57.6205 14.065 57.4505 13.895C57.2805 13.725 57.1955 13.43 57.1955 13.01V7.235H56.2955V6.905C56.8355 6.905 57.2105 6.755 57.4205 6.455C57.6405 6.145 57.8055 5.69 57.9155 5.09L58.2455 5.06V6.905ZM66.5755 9.155V10.67C66.5755 11.78 66.6105 12.51 66.6805 12.86C66.7505 13.2 66.9205 13.37 67.1905 13.37C67.3605 13.37 67.5855 13.3 67.8655 13.16L67.9405 13.31C67.8605 13.37 67.7555 13.445 67.6255 13.535C67.4955 13.615 67.2305 13.725 66.8305 13.865C66.4305 14.005 66.0455 14.075 65.6755 14.075C65.5755 13.655 65.5255 12.985 65.5255 12.065C65.3055 12.685 65.0155 13.19 64.6555 13.58C64.3055 13.96 63.8155 14.15 63.1855 14.15C62.5555 14.15 62.0555 13.985 61.6855 13.655C61.3255 13.315 61.1455 12.855 61.1455 12.275C61.1455 10.665 62.6055 9.855 65.5255 9.845V9.305C65.5255 8.585 65.4205 8.035 65.2105 7.655C65.0005 7.275 64.6105 7.085 64.0405 7.085C63.7205 7.085 63.4605 7.165 63.2605 7.325C63.0605 7.485 62.9255 7.66 62.8555 7.85C62.6855 8.37 62.4305 8.63 62.0905 8.63C61.7605 8.63 61.5955 8.445 61.5955 8.075C61.5955 7.695 61.8455 7.38 62.3455 7.13C62.8455 6.88 63.4505 6.755 64.1605 6.755C64.8705 6.755 65.4505 6.96 65.9005 7.37C66.3505 7.77 66.5755 8.365 66.5755 9.155ZM62.2855 12.335C62.2855 12.725 62.3805 13.05 62.5705 13.31C62.7605 13.56 63.0605 13.685 63.4705 13.685C63.8905 13.685 64.2705 13.485 64.6105 13.085C64.9505 12.675 65.1805 12.225 65.3005 11.735C65.4305 11.235 65.5055 10.72 65.5255 10.19C64.4155 10.2 63.5955 10.405 63.0655 10.805C62.5455 11.205 62.2855 11.715 62.2855 12.335ZM70.1653 4.955C69.9953 4.785 69.9103 4.585 69.9103 4.355C69.9103 4.125 69.9953 3.925 70.1653 3.755C70.3353 3.585 70.5353 3.5 70.7653 3.5C70.9953 3.5 71.1953 3.585 71.3653 3.755C71.5353 3.925 71.6203 4.125 71.6203 4.355C71.6203 4.585 71.5353 4.785 71.3653 4.955C71.1953 5.125 70.9953 5.21 70.7653 5.21C70.5353 5.21 70.3353 5.125 70.1653 4.955ZM71.3353 6.755V11.525C71.3353 12.575 71.3953 13.22 71.5153 13.46C71.6453 13.7 72.0053 13.82 72.5953 13.82L72.6253 14H68.9653L68.9953 13.82C69.5953 13.82 69.9603 13.7 70.0903 13.46C70.2203 13.21 70.2853 12.555 70.2853 11.495V10.445C70.2853 9.285 70.2503 8.52 70.1803 8.15C70.1203 7.77 70.0303 7.525 69.9103 7.415C69.6703 7.195 69.3003 7.085 68.8003 7.085L68.7703 6.92C69.6403 6.81 70.4953 6.755 71.3353 6.755ZM75.8261 2.96V11.39C75.8261 12.5 75.8911 13.185 76.0211 13.445C76.1511 13.695 76.5111 13.82 77.1011 13.82L77.1311 14H73.4561L73.4861 13.82C74.0861 13.82 74.4511 13.695 74.5811 13.445C74.7111 13.195 74.7761 12.51 74.7761 11.39V5.66C74.7761 4.55 74.7161 3.88 74.5961 3.65C74.5561 3.58 74.4811 3.51 74.3711 3.44C74.2611 3.37 74.1411 3.33 74.0111 3.32C73.8911 3.31 73.7161 3.305 73.4861 3.305L73.4561 3.14C74.2061 3.02 74.9961 2.96 75.8261 2.96ZM78.6581 11.765C78.6581 12.415 78.8331 12.905 79.1831 13.235C79.5331 13.555 79.9481 13.715 80.4281 13.715C80.9181 13.715 81.3131 13.605 81.6131 13.385C81.9131 13.165 82.0631 12.87 82.0631 12.5C82.0631 12.12 81.9331 11.81 81.6731 11.57C81.4231 11.33 81.1181 11.135 80.7581 10.985C80.3981 10.835 80.0331 10.68 79.6631 10.52C79.3031 10.36 78.9931 10.125 78.7331 9.815C78.4831 9.505 78.3581 9.09 78.3581 8.57C78.3581 8.05 78.5881 7.62 79.0481 7.28C79.5181 6.93 80.0581 6.755 80.6681 6.755C81.5381 6.755 82.2181 6.895 82.7081 7.175C82.7081 7.635 82.6481 8.275 82.5281 9.095L82.3481 9.05C82.3481 8.39 82.1981 7.91 81.8981 7.61C81.5981 7.31 81.2331 7.16 80.8031 7.16C80.3831 7.16 80.0431 7.27 79.7831 7.49C79.5331 7.71 79.4081 8.01 79.4081 8.39C79.4081 8.76 79.5331 9.06 79.7831 9.29C80.0431 9.51 80.3531 9.695 80.7131 9.845C81.0731 9.995 81.4331 10.155 81.7931 10.325C82.1631 10.485 82.4731 10.72 82.7231 11.03C82.9831 11.33 83.1131 11.7 83.1131 12.14C83.1131 12.78 82.8631 13.275 82.3631 13.625C81.8631 13.975 81.2031 14.15 80.3831 14.15C79.5731 14.15 78.8881 13.935 78.3281 13.505C78.3281 13.005 78.3781 12.415 78.4781 11.735L78.6581 11.765Z" fill="white"/>
<path d="M12.45 12.8L12.2523 12.8304L12.2531 12.8353L12.45 12.8ZM12.735 13.535L12.607 13.6886L12.6076 13.6892L12.735 13.535ZM13.83 13.82L14.0273 13.7871L13.9994 13.62H13.83V13.82ZM13.86 14V14.2H14.0961L14.0573 13.9671L13.86 14ZM9.84 14L9.64272 13.9671L9.60391 14.2H9.84V14ZM9.87 13.82V13.62H9.70058L9.67272 13.7871L9.87 13.82ZM10.95 13.55L11.0733 13.7075L11.0739 13.707L10.95 13.55ZM11.28 12.08L11.0803 12.0679L11.0801 12.0728L11.28 12.08ZM11.31 4.265H11.51L11.1268 4.18473L11.31 4.265ZM7.11 13.85L6.93359 13.9442L7.12778 14.3077L7.29319 13.9303L7.11 13.85ZM2.775 5.735L2.95141 5.64076L2.575 5.735H2.775ZM2.91 12.755L2.71382 12.7942L2.71497 12.7993L2.91 12.755ZM3.375 13.625L3.264 13.7915L3.26973 13.7951L3.375 13.625ZM4.425 13.82L4.62228 13.7871L4.59443 13.62H4.425V13.82ZM4.455 14V14.2H4.69109L4.65228 13.9671L4.455 14ZM0.765 14L0.567721 13.9671L0.528908 14.2H0.765V14ZM0.795 13.82V13.62H0.625575L0.597721 13.7871L0.795 13.82ZM1.62 13.745L1.67356 13.9378L1.68023 13.9357L1.62 13.745ZM2.1 13.295L1.92414 13.1997L2.1 13.295ZM2.34 12.335L2.14093 12.3151L2.14056 12.32L2.34 12.335ZM2.34 5.15L2.1405 5.16496L2.14099 5.1699L2.34 5.15ZM2.1 4.19L1.92414 4.28526L2.1 4.19ZM1.62 3.755L1.55662 3.94513L1.5691 3.94841L1.62 3.755ZM0.795 3.665L0.598226 3.70078L0.628085 3.865H0.795V3.665ZM0.765 3.5V3.3H0.525358L0.568226 3.53578L0.765 3.5ZM2.775 3.5L2.95171 3.40634L2.89535 3.3H2.775V3.5ZM7.41 12.245L7.23329 12.3387L7.42726 12.7046L7.59324 12.3251L7.41 12.245ZM11.235 3.5V3.3H11.1042L11.0518 3.41985L11.235 3.5ZM13.86 3.5L14.0568 3.53578L14.0996 3.3H13.86V3.5ZM13.83 3.665V3.865H13.9969L14.0268 3.70078L13.83 3.665ZM12.735 3.95L12.6076 3.7958L12.6064 3.79686L12.735 3.95ZM12.16 6.89V10.61H12.56V6.89H12.16ZM12.16 10.61C12.16 11.6786 12.1897 12.4232 12.2523 12.8304L12.6477 12.7696C12.5903 12.3968 12.56 11.6814 12.56 10.61H12.16ZM12.2531 12.8353C12.2894 13.0373 12.3334 13.2097 12.3873 13.3486C12.4397 13.4837 12.5088 13.6068 12.607 13.6886L12.863 13.3814C12.8412 13.3632 12.8028 13.3138 12.7602 13.2039C12.7191 13.0978 12.6806 12.9527 12.6469 12.7647L12.2531 12.8353ZM12.6076 13.6892C12.8907 13.9231 13.3124 14.02 13.83 14.02V13.62C13.3476 13.62 13.0393 13.5269 12.8624 13.3808L12.6076 13.6892ZM13.6327 13.8529L13.6627 14.0329L14.0573 13.9671L14.0273 13.7871L13.6327 13.8529ZM13.86 13.8H9.84V14.2H13.86V13.8ZM10.0373 14.0329L10.0673 13.8529L9.67272 13.7871L9.64272 13.9671L10.0373 14.0329ZM9.87 14.02C10.3771 14.02 10.7912 13.9282 11.0733 13.7075L10.8267 13.3925C10.6488 13.5318 10.3429 13.62 9.87 13.62V14.02ZM11.0739 13.707C11.2275 13.5857 11.314 13.3637 11.3701 13.1138C11.429 12.8516 11.4647 12.5077 11.4799 12.0872L11.0801 12.0728C11.0653 12.4823 11.031 12.7984 10.9799 13.0262C10.926 13.2663 10.8625 13.3643 10.8261 13.393L11.0739 13.707ZM11.4796 12.0921C11.5 11.7559 11.51 11.261 11.51 10.61H11.11C11.11 11.259 11.1 11.7441 11.0804 12.0679L11.4796 12.0921ZM11.51 10.61V4.265H11.11V10.61H11.51ZM11.1268 4.18473L6.92682 13.7697L7.29319 13.9303L11.4932 4.34527L11.1268 4.18473ZM7.28641 13.7558L2.95141 5.64076L2.59859 5.82924L6.93359 13.9442L7.28641 13.7558ZM2.575 5.735V10.58H2.975V5.735H2.575ZM2.575 10.58C2.575 11.5815 2.61973 12.3235 2.71388 12.7942L3.10612 12.7158C3.02027 12.2865 2.975 11.5785 2.975 10.58H2.575ZM2.71497 12.7993C2.8182 13.2535 2.98843 13.6077 3.26406 13.7914L3.48594 13.4586C3.34157 13.3623 3.20181 13.1365 3.10503 12.7107L2.71497 12.7993ZM3.26973 13.7951C3.52975 13.956 3.92796 14.02 4.425 14.02V13.62C3.94204 13.62 3.64025 13.554 3.48027 13.4549L3.26973 13.7951ZM4.22772 13.8529L4.25772 14.0329L4.65228 13.9671L4.62228 13.7871L4.22772 13.8529ZM4.455 13.8H0.765V14.2H4.455V13.8ZM0.962279 14.0329L0.992279 13.8529L0.597721 13.7871L0.567721 13.9671L0.962279 14.0329ZM0.795 14.02C1.16905 14.02 1.46639 13.9952 1.67353 13.9377L1.56647 13.5523C1.41361 13.5948 1.16095 13.62 0.795 13.62V14.02ZM1.68023 13.9357C1.93562 13.8551 2.13045 13.6587 2.27586 13.3903L1.92414 13.1997C1.80955 13.4113 1.68438 13.5149 1.55977 13.5543L1.68023 13.9357ZM2.27586 13.3903C2.42407 13.1166 2.50824 12.766 2.53944 12.35L2.14056 12.32C2.11176 12.704 2.03593 12.9934 1.92414 13.1997L2.27586 13.3903ZM2.53901 12.3549C2.58002 11.9448 2.6 11.3518 2.6 10.58H2.2C2.2 11.3482 2.17998 11.9252 2.14099 12.3151L2.53901 12.3549ZM2.6 10.58V6.905H2.2V10.58H2.6ZM2.6 6.905C2.6 6.13319 2.58002 5.54022 2.53901 5.1301L2.14099 5.1699C2.17998 5.55978 2.2 6.13681 2.2 6.905H2.6ZM2.53944 5.13504C2.50824 4.71902 2.42407 4.36837 2.27586 4.09474L1.92414 4.28526C2.03593 4.49163 2.11176 4.78098 2.14056 5.16496L2.53944 5.13504ZM2.27586 4.09474C2.13008 3.82561 1.93248 3.63042 1.6709 3.56158L1.5691 3.94841C1.68752 3.97958 1.80992 4.07439 1.92414 4.28526L2.27586 4.09474ZM1.68325 3.56526C1.47163 3.49472 1.17013 3.465 0.795 3.465V3.865C1.15987 3.865 1.40837 3.89528 1.55675 3.94474L1.68325 3.56526ZM0.991774 3.62922L0.961774 3.46422L0.568226 3.53578L0.598226 3.70078L0.991774 3.62922ZM0.765 3.7H2.775V3.3H0.765V3.7ZM2.59829 3.59366L7.23329 12.3387L7.58671 12.1513L2.95171 3.40634L2.59829 3.59366ZM7.59324 12.3251L11.4182 3.58015L11.0518 3.41985L7.22676 12.1649L7.59324 12.3251ZM11.235 3.7H13.86V3.3H11.235V3.7ZM13.6632 3.46422L13.6332 3.62922L14.0268 3.70078L14.0568 3.53578L13.6632 3.46422ZM13.83 3.465C13.3124 3.465 12.8907 3.56193 12.6076 3.79581L12.8624 4.10419C13.0393 3.95807 13.3476 3.865 13.83 3.865V3.465ZM12.6064 3.79686C12.4984 3.88751 12.4297 4.03452 12.3802 4.19176C12.3283 4.35644 12.2874 4.56636 12.2554 4.81719C12.1913 5.31962 12.16 6.01192 12.16 6.89H12.56C12.56 6.01808 12.5912 5.34538 12.6521 4.8678C12.6826 4.62864 12.7198 4.44481 12.7617 4.31199C12.8059 4.17173 12.8466 4.11749 12.8636 4.10314L12.6064 3.79686ZM16.1045 7.82L15.9517 7.69091L16.1045 7.82ZM21.0395 7.82L21.1891 7.68726L21.0395 7.82ZM21.0695 13.1L20.9178 12.9697L20.9176 12.9698L21.0695 13.1ZM16.1345 13.085L15.9838 13.2166L15.9849 13.2177L16.1345 13.085ZM16.9295 12.89L16.7587 12.9941L16.7599 12.996L16.9295 12.89ZM20.2745 12.905L20.1032 12.8017L20.102 12.8037L20.2745 12.905ZM16.8995 8.015L16.7275 7.91289L16.727 7.91372L16.8995 8.015ZM15.4045 10.46C15.4045 9.45075 15.6917 8.61831 16.2573 7.94909L15.9517 7.69091C15.3173 8.44169 15.0045 9.36925 15.0045 10.46H15.4045ZM16.2573 7.94909C16.8149 7.28926 17.5712 6.955 18.5495 6.955V6.555C17.4678 6.555 16.5941 6.93074 15.9517 7.69091L16.2573 7.94909ZM18.5495 6.955C19.5278 6.955 20.3013 7.28945 20.8899 7.95274L21.1891 7.68726C20.5176 6.93055 19.6312 6.555 18.5495 6.555V6.955ZM20.8899 7.95274C21.4839 8.62217 21.7845 9.45333 21.7845 10.46H22.1845C22.1845 9.36667 21.8551 8.43783 21.1891 7.68726L20.8899 7.95274ZM21.7845 10.46C21.7845 11.4684 21.4928 12.3004 20.9178 12.9697L21.2212 13.2303C21.8662 12.4796 22.1845 11.5516 22.1845 10.46H21.7845ZM20.9176 12.9698C20.3604 13.62 19.6038 13.95 18.6245 13.95V14.35C19.7052 14.35 20.5786 13.98 21.2213 13.2302L20.9176 12.9698ZM18.6245 13.95C17.6462 13.95 16.8726 13.6156 16.2841 12.9523L15.9849 13.2177C16.6563 13.9744 17.5428 14.35 18.6245 14.35V13.95ZM16.2851 12.9534C15.7003 12.2837 15.4045 11.457 15.4045 10.46H15.0045C15.0045 11.543 15.3287 12.4663 15.9838 13.2166L16.2851 12.9534ZM16.7599 12.996C17.1949 13.6921 17.8227 14.05 18.6245 14.05V13.65C17.9662 13.65 17.464 13.3679 17.0991 12.784L16.7599 12.996ZM18.6245 14.05C19.4255 14.05 20.0411 13.6974 20.4469 13.0063L20.102 12.8037C19.7679 13.3726 19.2835 13.65 18.6245 13.65V14.05ZM20.4458 13.0083C20.85 12.3381 21.0445 11.4892 21.0445 10.475H20.6445C20.6445 11.4408 20.459 12.2119 20.1032 12.8017L20.4458 13.0083ZM21.0445 10.475C21.0445 9.4494 20.8394 8.58955 20.4141 7.909L20.0749 8.121C20.4495 8.72045 20.6445 9.5006 20.6445 10.475H21.0445ZM20.4141 7.909C19.979 7.21293 19.3512 6.855 18.5495 6.855V7.255C19.2077 7.255 19.7099 7.53707 20.0749 8.121L20.4141 7.909ZM18.5495 6.855C17.756 6.855 17.1421 7.21472 16.7275 7.91289L17.0715 8.11711C17.4169 7.53528 17.903 7.255 18.5495 7.255V6.855ZM16.727 7.91372C16.3337 8.58345 16.1445 9.43156 16.1445 10.445H16.5445C16.5445 9.47844 16.7253 8.70655 17.0719 8.11628L16.727 7.91372ZM16.1445 10.445C16.1445 11.4602 16.3444 12.3142 16.7587 12.9941L17.1003 12.7859C16.7346 12.1858 16.5445 11.4098 16.5445 10.445H16.1445ZM27.5979 7.715L27.4961 7.88722L27.4995 7.88911L27.5979 7.715ZM25.9329 8.6L25.7439 8.53439L25.7432 8.53675L25.9329 8.6ZM25.7679 13.43L25.9507 13.3487L25.9481 13.3432L25.7679 13.43ZM25.9929 13.685L25.875 13.8471L25.8855 13.8537L25.9929 13.685ZM26.3379 13.805L26.3213 14.0043L26.3379 13.805ZM26.8479 13.82L27.0452 13.7871L27.0173 13.62H26.8479V13.82ZM26.8779 14V14.2H27.114L27.0752 13.9671L26.8779 14ZM23.2329 14L23.0356 13.9671L22.9968 14.2H23.2329V14ZM23.2629 13.82V13.62H23.0935L23.0656 13.7871L23.2629 13.82ZM23.9529 13.775L23.9948 13.9708L24.0044 13.9682L23.9529 13.775ZM24.4929 12.62L24.2932 12.6075L24.293 12.6136L24.4929 12.62ZM24.4029 7.865L24.215 7.93421L24.2186 7.94261L24.4029 7.865ZM24.2079 7.415L24.0323 7.51077L24.2079 7.415ZM23.9379 7.19L24.0012 6.99997L23.9905 6.99705L23.9379 7.19ZM23.0679 7.1L22.8711 7.13578L22.901 7.3H23.0679V7.1ZM23.0379 6.935L23.0099 6.73696L22.8039 6.76605L22.8411 6.97078L23.0379 6.935ZM25.5729 6.755H25.7729V6.555H25.5729V6.755ZM25.5729 8.96H25.3729L25.7705 8.99062L25.5729 8.96ZM26.3079 7.295L26.163 7.15716L26.1629 7.15725L26.3079 7.295ZM27.8079 6.88C28.0277 6.88 28.2122 6.92805 28.3677 7.01809L28.5681 6.67191C28.3436 6.54195 28.0881 6.48 27.8079 6.48V6.88ZM28.3677 7.01809C28.5074 7.09897 28.5529 7.1887 28.5529 7.295H28.9529C28.9529 7.0213 28.8084 6.81103 28.5681 6.67191L28.3677 7.01809ZM28.5529 7.295C28.5529 7.4392 28.5094 7.53187 28.4377 7.59757L28.708 7.89243C28.8764 7.73813 28.9529 7.5308 28.9529 7.295H28.5529ZM28.4377 7.59757C28.3512 7.67689 28.2634 7.71 28.1679 7.71V8.11C28.3724 8.11 28.5546 8.0331 28.708 7.89243L28.4377 7.59757ZM28.1679 7.71C28.0696 7.71 27.916 7.66508 27.6963 7.54089L27.4995 7.88911C27.7397 8.02492 27.9662 8.11 28.1679 8.11V7.71ZM27.6996 7.54281C27.4495 7.39503 27.1795 7.32 26.8929 7.32V7.72C27.1063 7.72 27.3062 7.77497 27.4961 7.88719L27.6996 7.54281ZM26.8929 7.32C26.6277 7.32 26.3992 7.44528 26.2109 7.65713C26.0263 7.86482 25.8731 8.1624 25.744 8.5344L26.1218 8.6656C26.2427 8.3176 26.3745 8.07518 26.5099 7.92287C26.6416 7.77472 26.7681 7.72 26.8929 7.72V7.32ZM25.7432 8.53675C25.4949 9.28154 25.3729 10.1387 25.3729 11.105H25.7729C25.7729 10.1713 25.8909 9.35846 26.1226 8.66325L25.7432 8.53675ZM25.3729 11.105C25.3729 11.7475 25.3892 12.2675 25.4223 12.663C25.4546 13.0478 25.5046 13.3442 25.5877 13.5168L25.9481 13.3432C25.9012 13.2458 25.8537 13.0197 25.8209 12.6295C25.7891 12.25 25.7729 11.7425 25.7729 11.105H25.3729ZM25.5851 13.5112C25.6438 13.6433 25.7472 13.7536 25.8753 13.8467L26.1105 13.5233C26.0186 13.4564 25.972 13.3967 25.9507 13.3488L25.5851 13.5112ZM25.8855 13.8537C26.0205 13.9397 26.1664 13.9914 26.3213 14.0043L26.3545 13.6057C26.2694 13.5986 26.1852 13.5703 26.1003 13.5163L25.8855 13.8537ZM26.3213 14.0043C26.4496 14.015 26.6261 14.02 26.8479 14.02V13.62C26.6297 13.62 26.4662 13.615 26.3545 13.6057L26.3213 14.0043ZM26.6506 13.8529L26.6806 14.0329L27.0752 13.9671L27.0452 13.7871L26.6506 13.8529ZM26.8779 13.8H23.2329V14.2H26.8779V13.8ZM23.4302 14.0329L23.4602 13.8529L23.0656 13.7871L23.0356 13.9671L23.4302 14.0329ZM23.2629 14.02C23.5841 14.02 23.8324 14.0053 23.9948 13.9706L23.911 13.5794C23.7933 13.6047 23.5817 13.62 23.2629 13.62V14.02ZM24.0044 13.9682C24.2345 13.9069 24.396 13.7222 24.5085 13.486L24.1473 13.314C24.0598 13.4978 23.9712 13.5631 23.9014 13.5818L24.0044 13.9682ZM24.5085 13.486C24.6236 13.2443 24.6822 12.9553 24.6928 12.6264L24.293 12.6136C24.2836 12.9047 24.2322 13.1357 24.1473 13.314L24.5085 13.486ZM24.6925 12.6325C24.7129 12.3058 24.7229 11.7956 24.7229 11.105H24.3229C24.3229 11.7944 24.3129 12.2942 24.2933 12.6075L24.6925 12.6325ZM24.7229 11.105V10.235H24.3229V11.105H24.7229ZM24.7229 10.235C24.7229 9.53873 24.7129 8.98985 24.6926 8.58989C24.6825 8.39009 24.6697 8.22484 24.6539 8.09569C24.6389 7.97325 24.6191 7.86318 24.5872 7.78739L24.2186 7.94261C24.2267 7.96182 24.2419 8.02175 24.2569 8.14431C24.2711 8.26016 24.2833 8.41491 24.2931 8.61011C24.3129 9.00015 24.3229 9.54126 24.3229 10.235H24.7229ZM24.5906 7.79586C24.519 7.60154 24.4501 7.44137 24.3835 7.31923L24.0323 7.51077C24.0857 7.60863 24.1468 7.74846 24.2152 7.93414L24.5906 7.79586ZM24.3835 7.31923C24.299 7.16436 24.1686 7.05609 24.0011 7.00026L23.8746 7.37974C23.9472 7.40391 23.9968 7.44564 24.0323 7.51077L24.3835 7.31923ZM23.9905 6.99705C23.7464 6.93048 23.4367 6.9 23.0679 6.9V7.3C23.4191 7.3 23.6893 7.32952 23.8853 7.38295L23.9905 6.99705ZM23.2647 7.06422L23.2347 6.89922L22.8411 6.97078L22.8711 7.13578L23.2647 7.06422ZM23.0658 7.13304C23.9068 7.01432 24.7424 6.955 25.5729 6.955V6.555C24.7233 6.555 23.869 6.61568 23.0099 6.73696L23.0658 7.13304ZM25.3729 6.755V8.96H25.7729V6.755H25.3729ZM25.7705 8.99062C25.8762 8.30879 26.1083 7.79547 26.4529 7.43275L26.1629 7.15725C25.7475 7.59453 25.4896 8.19121 25.3752 8.92938L25.7705 8.99062ZM26.4528 7.43284C26.8019 7.06585 27.2479 6.88 27.8079 6.88V6.48C27.1479 6.48 26.5939 6.70415 26.163 7.15716L26.4528 7.43284ZM35.2684 10.205V10.405H35.4684V10.205H35.2684ZM30.3484 10.205V10.005H30.1484V10.205H30.3484ZM31.0234 12.89L30.8675 13.0153L30.8686 13.0166L31.0234 12.89ZM34.8634 12.515L34.9575 12.3385L34.7833 12.2456L34.6882 12.4186L34.8634 12.515ZM35.0884 12.635L35.2662 12.7265L35.3564 12.5513L35.1825 12.4585L35.0884 12.635ZM30.1684 13.175L30.0259 13.3153L30.1684 13.175ZM30.0484 7.82L29.8924 7.69479L29.8914 7.69614L30.0484 7.82ZM34.5034 7.73L34.346 7.85346L34.347 7.85464L34.5034 7.73ZM30.9784 7.805L30.813 7.69254L30.8125 7.69328L30.9784 7.805ZM30.3784 9.77L30.1791 9.75299L30.1606 9.97H30.3784V9.77ZM34.1134 9.77V9.97H34.3213L34.3132 9.76227L34.1134 9.77ZM35.2684 10.005H30.3484V10.405H35.2684V10.005ZM30.1484 10.205V10.46H30.5484V10.205H30.1484ZM30.1484 10.46C30.1484 11.5447 30.3782 12.4063 30.8675 13.0153L31.1793 12.7647C30.7686 12.2537 30.5484 11.4953 30.5484 10.46H30.1484ZM30.8686 13.0166C31.3539 13.6098 31.9694 13.915 32.7034 13.915V13.515C32.0974 13.515 31.5928 13.2702 31.1782 12.7634L30.8686 13.0166ZM32.7034 13.915C33.7678 13.915 34.5596 13.4824 35.0386 12.6114L34.6882 12.4186C34.2872 13.1476 33.639 13.515 32.7034 13.515V13.915ZM34.7693 12.6915L34.9943 12.8115L35.1825 12.4585L34.9575 12.3385L34.7693 12.6915ZM34.9106 12.5435C34.6657 13.019 34.3433 13.3674 33.9455 13.5983C33.5469 13.8297 33.0606 13.95 32.4784 13.95V14.35C33.1162 14.35 33.6749 14.2178 34.1463 13.9442C34.6185 13.6701 34.9911 13.261 35.2662 12.7265L34.9106 12.5435ZM32.4784 13.95C31.6328 13.95 30.9139 13.6471 30.3109 13.0347L30.0259 13.3153C30.7029 14.0029 31.524 14.35 32.4784 14.35V13.95ZM30.3109 13.0347C29.7151 12.4296 29.4084 11.609 29.4084 10.55H29.0084C29.0084 11.691 29.3417 12.6204 30.0259 13.3153L30.3109 13.0347ZM29.4084 10.55C29.4084 9.47444 29.6791 8.61112 30.2054 7.94386L29.8914 7.69614C29.2977 8.44888 29.0084 9.40556 29.0084 10.55H29.4084ZM30.2044 7.94521C30.735 7.28424 31.4318 6.955 32.3134 6.955V6.555C31.315 6.555 30.5018 6.93576 29.8924 7.69479L30.2044 7.94521ZM32.3134 6.955C33.2124 6.955 33.88 7.25941 34.3461 7.85346L34.6607 7.60654C34.1068 6.90059 33.3144 6.555 32.3134 6.555V6.955ZM34.347 7.85464C34.8227 8.45156 35.0684 9.22939 35.0684 10.205H35.4684C35.4684 9.16061 35.2041 8.28844 34.6598 7.60536L34.347 7.85464ZM32.3584 6.855C31.7089 6.855 31.1884 7.14055 30.813 7.69254L31.1438 7.91746C31.4484 7.46945 31.8479 7.255 32.3584 7.255V6.855ZM30.8125 7.69328C30.4575 8.22042 30.2509 8.91174 30.1791 9.75299L30.5777 9.78701C30.6459 8.98826 30.8393 8.36958 31.1443 7.91672L30.8125 7.69328ZM30.3784 9.97H34.1134V9.57H30.3784V9.97ZM34.3132 9.76227C34.2777 8.84303 34.1112 8.12191 33.7901 7.62518C33.4598 7.11425 32.9746 6.855 32.3584 6.855V7.255C32.8422 7.255 33.1994 7.44824 33.4542 7.84232C33.7181 8.25059 33.8791 8.88697 33.9135 9.77773L34.3132 9.76227ZM45.4405 12.335H45.6405L45.2494 12.2762L45.4405 12.335ZM44.6155 13.64L44.7489 13.789L44.7491 13.7888L44.6155 13.64ZM41.8255 13.82L41.9277 13.6481L41.8255 13.82ZM40.9705 12.95L41.1454 12.8529L41.1435 12.8497L40.9705 12.95ZM41.3905 7.85L41.2442 7.71368L41.3905 7.85ZM45.4855 6.935L45.4293 7.12695L45.6855 7.20193V6.935H45.4855ZM45.4105 3.995L45.2138 4.03142L45.2141 4.03277L45.4105 3.995ZM45.1705 3.5L45.0675 3.67164L45.0747 3.67558L45.1705 3.5ZM44.2255 3.32L44.0287 3.35578L44.0586 3.52H44.2255V3.32ZM44.1955 3.155L44.1626 2.95772L43.9624 2.99109L43.9987 3.19078L44.1955 3.155ZM46.5355 2.975H46.7355V2.775H46.5355V2.975ZM46.6405 12.86L46.4444 12.8992L46.4446 12.9003L46.6405 12.86ZM47.8255 13.16L48.0044 13.0706L47.915 12.8917L47.7361 12.9811L47.8255 13.16ZM47.9005 13.31L48.0205 13.47L48.154 13.3699L48.0794 13.2206L47.9005 13.31ZM47.5855 13.535L47.6905 13.7056L47.6993 13.6994L47.5855 13.535ZM46.7905 13.865L46.8566 14.0538L46.7905 13.865ZM45.6355 14.075L45.4411 14.1218L45.4779 14.275H45.6355V14.075ZM41.8705 12.59L42.0585 12.5216L42.057 12.5178L41.8705 12.59ZM42.4255 13.385L42.3005 13.5412L42.3036 13.5435L42.4255 13.385ZM44.3455 13.31L44.2175 13.1563L44.2149 13.1585L44.3455 13.31ZM45.0205 12.35L44.8356 12.2736L44.8338 12.2782L45.0205 12.35ZM45.4855 7.73H45.6855V7.63317L45.6096 7.57312L45.4855 7.73ZM42.8005 7.55L42.9092 7.71791L42.8005 7.55ZM42.0205 8.42L42.1989 8.51051L42.1994 8.50944L42.0205 8.42ZM45.2494 12.2762C45.0996 12.7629 44.8439 13.1663 44.4819 13.4912L44.7491 13.7888C45.1672 13.4137 45.4614 12.9471 45.6317 12.3938L45.2494 12.2762ZM44.4821 13.491C44.1425 13.7948 43.7215 13.95 43.2055 13.95V14.35C43.8095 14.35 44.3285 14.1652 44.7489 13.789L44.4821 13.491ZM43.2055 13.95C42.6817 13.95 42.2593 13.8453 41.9277 13.6481L41.7233 13.9919C42.1317 14.2347 42.6294 14.35 43.2055 14.35V13.95ZM41.9277 13.6481C41.5867 13.4453 41.3274 13.1805 41.1453 12.8529L40.7957 13.0471C41.0136 13.4395 41.3243 13.7547 41.7233 13.9919L41.9277 13.6481ZM41.1435 12.8497C40.765 12.1967 40.5705 11.3932 40.5705 10.43H40.1705C40.1705 11.4468 40.376 12.3233 40.7975 13.0503L41.1435 12.8497ZM40.5705 10.43C40.5705 9.49102 40.891 8.67962 41.5369 7.98632L41.2442 7.71368C40.53 8.48038 40.1705 9.38898 40.1705 10.43H40.5705ZM41.5369 7.98632C42.1735 7.30289 43.0273 6.955 44.1205 6.955V6.555C42.9337 6.555 41.9675 6.93711 41.2442 7.71368L41.5369 7.98632ZM44.1205 6.955C44.6046 6.955 45.0404 7.01311 45.4293 7.12695L45.5417 6.74305C45.1106 6.61689 44.6364 6.555 44.1205 6.555V6.955ZM45.6855 6.935V5.51H45.2855V6.935H45.6855ZM45.6855 5.51C45.6855 4.76243 45.6611 4.23879 45.6069 3.95723L45.2141 4.03277C45.26 4.27121 45.2855 4.75757 45.2855 5.51H45.6855ZM45.6072 3.95858C45.5803 3.81378 45.5436 3.68598 45.493 3.58149C45.4428 3.47808 45.3713 3.38168 45.2663 3.32442L45.0747 3.67558C45.0798 3.67832 45.1032 3.69442 45.133 3.756C45.1624 3.81652 45.1907 3.90621 45.2139 4.03142L45.6072 3.95858ZM45.2734 3.3285C45.0258 3.17992 44.6657 3.12 44.2255 3.12V3.52C44.6453 3.52 44.9152 3.58008 45.0676 3.6715L45.2734 3.3285ZM44.4223 3.28422L44.3923 3.11922L43.9987 3.19078L44.0287 3.35578L44.4223 3.28422ZM44.2284 3.35228C44.936 3.23434 45.7049 3.175 46.5355 3.175V2.775C45.6861 2.775 44.895 2.83566 44.1626 2.95772L44.2284 3.35228ZM46.3355 2.975V10.67H46.7355V2.975H46.3355ZM46.3355 10.67C46.3355 11.7761 46.3698 12.5264 46.4444 12.8992L46.8366 12.8208C46.7712 12.4936 46.7355 11.7839 46.7355 10.67H46.3355ZM46.4446 12.9003C46.4842 13.0925 46.5567 13.2615 46.6791 13.3839C46.8064 13.5112 46.9696 13.57 47.1505 13.57V13.17C47.0614 13.17 47.0047 13.1438 46.9619 13.1011C46.9143 13.0535 46.8668 12.9675 46.8364 12.8197L46.4446 12.9003ZM47.1505 13.57C47.3678 13.57 47.6268 13.483 47.915 13.3389L47.7361 12.9811C47.4642 13.117 47.2732 13.17 47.1505 13.17V13.57ZM47.6466 13.2494L47.7216 13.3994L48.0794 13.2206L48.0044 13.0706L47.6466 13.2494ZM47.7805 13.15C47.7033 13.2079 47.6006 13.2813 47.4717 13.3706L47.6993 13.6994C47.8304 13.6087 47.9377 13.5321 48.0205 13.47L47.7805 13.15ZM47.4807 13.3647C47.3718 13.4317 47.1267 13.5354 46.7244 13.6762L46.8566 14.0538C47.2543 13.9146 47.5393 13.7983 47.6903 13.7053L47.4807 13.3647ZM46.7244 13.6762C46.3426 13.8099 45.98 13.875 45.6355 13.875V14.275C46.031 14.275 46.4384 14.2001 46.8566 14.0538L46.7244 13.6762ZM45.83 14.0282C45.704 13.5052 45.6405 12.941 45.6405 12.335H45.2405C45.2405 12.969 45.307 13.5648 45.4411 14.1218L45.83 14.0282ZM41.6825 12.6583C41.8138 13.0194 42.0192 13.316 42.3006 13.5412L42.5504 13.2288C42.3319 13.054 42.1672 12.8206 42.0585 12.5217L41.6825 12.6583ZM42.3036 13.5435C42.602 13.7731 42.956 13.885 43.3555 13.885V13.485C43.0351 13.485 42.769 13.3969 42.5475 13.2265L42.3036 13.5435ZM43.3555 13.885C43.7752 13.885 44.1512 13.7416 44.4761 13.4615L44.2149 13.1585C43.9598 13.3784 43.6758 13.485 43.3555 13.485V13.885ZM44.4735 13.4636C44.8016 13.1903 45.0458 12.8413 45.2072 12.4218L44.8338 12.2782C44.6952 12.6387 44.4894 12.9297 44.2175 13.1564L44.4735 13.4636ZM45.2053 12.4264C45.5252 11.6525 45.6855 10.8516 45.6855 10.025H45.2855C45.2855 10.7984 45.1358 11.5475 44.8357 12.2736L45.2053 12.4264ZM45.6855 10.025V7.73H45.2855V10.025H45.6855ZM45.6096 7.57312C45.1471 7.20743 44.634 7.02 44.0755 7.02V7.42C44.537 7.42 44.964 7.57257 45.3615 7.88688L45.6096 7.57312ZM44.0755 7.02C43.5369 7.02 43.0717 7.13632 42.6919 7.38209L42.9092 7.71791C43.2093 7.52368 43.5941 7.42 44.0755 7.42V7.02ZM42.6919 7.38209C42.3221 7.62137 42.0377 7.93839 41.8416 8.33056L42.1994 8.50944C42.3633 8.18161 42.599 7.91863 42.9092 7.71791L42.6919 7.38209ZM41.8422 8.32949C41.4878 9.02787 41.3105 9.77393 41.3105 10.565H41.7105C41.7105 9.83607 41.8733 9.15212 42.1989 8.51051L41.8422 8.32949ZM41.3105 10.565C41.3105 11.3173 41.4342 12.017 41.684 12.6622L42.057 12.5178C41.8268 11.923 41.7105 11.2727 41.7105 10.565H41.3105ZM54.8534 10.205V10.405H55.0534V10.205H54.8534ZM49.9334 10.205V10.005H49.7334V10.205H49.9334ZM50.6084 12.89L50.4525 13.0153L50.4536 13.0166L50.6084 12.89ZM54.4484 12.515L54.5425 12.3385L54.3683 12.2456L54.2731 12.4186L54.4484 12.515ZM54.6734 12.635L54.8512 12.7265L54.9414 12.5513L54.7675 12.4585L54.6734 12.635ZM49.7534 13.175L49.6108 13.3153L49.7534 13.175ZM49.6334 7.82L49.4774 7.69479L49.4763 7.69614L49.6334 7.82ZM54.0884 7.73L53.931 7.85346L53.9319 7.85464L54.0884 7.73ZM50.5634 7.805L50.398 7.69254L50.3975 7.69328L50.5634 7.805ZM49.9634 9.77L49.7641 9.75299L49.7456 9.97H49.9634V9.77ZM53.6984 9.77V9.97H53.9062L53.8982 9.76227L53.6984 9.77ZM54.8534 10.005H49.9334V10.405H54.8534V10.005ZM49.7334 10.205V10.46H50.1334V10.205H49.7334ZM49.7334 10.46C49.7334 11.5447 49.9631 12.4063 50.4525 13.0153L50.7643 12.7647C50.3536 12.2537 50.1334 11.4953 50.1334 10.46H49.7334ZM50.4536 13.0166C50.9389 13.6098 51.5543 13.915 52.2884 13.915V13.515C51.6824 13.515 51.1778 13.2702 50.7631 12.7634L50.4536 13.0166ZM52.2884 13.915C53.3528 13.915 54.1445 13.4824 54.6236 12.6114L54.2731 12.4186C53.8722 13.1476 53.2239 13.515 52.2884 13.515V13.915ZM54.3542 12.6915L54.5792 12.8115L54.7675 12.4585L54.5425 12.3385L54.3542 12.6915ZM54.4955 12.5435C54.2507 13.019 53.9283 13.3674 53.5305 13.5983C53.1318 13.8297 52.6456 13.95 52.0634 13.95V14.35C52.7011 14.35 53.2599 14.2178 53.7313 13.9442C54.2035 13.6701 54.576 13.261 54.8512 12.7265L54.4955 12.5435ZM52.0634 13.95C51.2178 13.95 50.4989 13.6471 49.8959 13.0347L49.6108 13.3153C50.2879 14.0029 51.109 14.35 52.0634 14.35V13.95ZM49.8959 13.0347C49.3001 12.4296 48.9934 11.609 48.9934 10.55H48.5934C48.5934 11.691 48.9266 12.6204 49.6108 13.3153L49.8959 13.0347ZM48.9934 10.55C48.9934 9.47444 49.2641 8.61112 49.7904 7.94386L49.4763 7.69614C48.8826 8.44888 48.5934 9.40556 48.5934 10.55H48.9934ZM49.7893 7.94521C50.32 7.28424 51.0167 6.955 51.8984 6.955V6.555C50.9 6.555 50.0868 6.93576 49.4774 7.69479L49.7893 7.94521ZM51.8984 6.955C52.7973 6.955 53.4649 7.25941 53.931 7.85346L54.2457 7.60654C53.6918 6.90059 52.8994 6.555 51.8984 6.555V6.955ZM53.9319 7.85464C54.4076 8.45156 54.6534 9.22939 54.6534 10.205H55.0534C55.0534 9.16061 54.7891 8.28844 54.2448 7.60536L53.9319 7.85464ZM51.9434 6.855C51.2938 6.855 50.7733 7.14055 50.398 7.69254L50.7287 7.91746C51.0334 7.46945 51.4329 7.255 51.9434 7.255V6.855ZM50.3975 7.69328C50.0425 8.22042 49.8359 8.91174 49.7641 9.75299L50.1626 9.78701C50.2308 8.98826 50.4243 8.36958 50.7292 7.91672L50.3975 7.69328ZM49.9634 9.97H53.6984V9.57H49.9634V9.97ZM53.8982 9.76227C53.8627 8.84303 53.6962 8.12191 53.3751 7.62518C53.0448 7.11425 52.5595 6.855 51.9434 6.855V7.255C52.4272 7.255 52.7844 7.44824 53.0391 7.84232C53.3031 8.25059 53.4641 8.88697 53.4985 9.77773L53.8982 9.76227ZM58.2455 6.905H58.0455V7.105H58.2455V6.905ZM60.0905 6.905H60.2905V6.705H60.0905V6.905ZM60.0905 7.235V7.435H60.2905V7.235H60.0905ZM58.2455 7.235V7.035H58.0455V7.235H58.2455ZM58.3955 13.46L58.2368 13.582L58.2418 13.588L58.3955 13.46ZM60.0605 13.325L60.2572 13.2892L60.2123 13.0423L59.9817 13.1412L60.0605 13.325ZM60.0905 13.49L60.1969 13.6593L60.3114 13.5873L60.2872 13.4542L60.0905 13.49ZM57.4505 13.895L57.5919 13.7536L57.4505 13.895ZM57.1955 7.235H57.3955V7.035H57.1955V7.235ZM56.2955 7.235H56.0955V7.435H56.2955V7.235ZM56.2955 6.905V6.705H56.0955V6.905H56.2955ZM57.4205 6.455L57.2574 6.33925L57.2566 6.34031L57.4205 6.455ZM57.9155 5.09L57.8974 4.89082L57.7461 4.90457L57.7187 5.05393L57.9155 5.09ZM58.2455 5.06H58.4455V4.84099L58.2274 4.86082L58.2455 5.06ZM58.2455 7.105H60.0905V6.705H58.2455V7.105ZM59.8905 6.905V7.235H60.2905V6.905H59.8905ZM60.0905 7.035H58.2455V7.435H60.0905V7.035ZM58.0455 7.235V12.95H58.4455V7.235H58.0455ZM58.0455 12.95C58.0455 13.1916 58.1033 13.4082 58.2369 13.5819L58.554 13.3381C58.4876 13.2518 58.4455 13.1284 58.4455 12.95H58.0455ZM58.2418 13.588C58.3809 13.7549 58.5678 13.84 58.7855 13.84V13.44C58.6832 13.44 58.6101 13.4051 58.5491 13.332L58.2418 13.588ZM58.7855 13.84C59.1823 13.84 59.6353 13.7248 60.1393 13.5088L59.9817 13.1412C59.5057 13.3452 59.1086 13.44 58.7855 13.44V13.84ZM59.8637 13.3608L59.8937 13.5258L60.2872 13.4542L60.2572 13.2892L59.8637 13.3608ZM59.984 13.3207C59.3002 13.7505 58.7178 13.95 58.2305 13.95V14.35C58.8231 14.35 59.4807 14.1095 60.1969 13.6593L59.984 13.3207ZM58.2305 13.95C57.9093 13.95 57.7102 13.8719 57.5919 13.7536L57.309 14.0364C57.5308 14.2581 57.8516 14.35 58.2305 14.35V13.95ZM57.5919 13.7536C57.4791 13.6408 57.3955 13.4136 57.3955 13.01H56.9955C56.9955 13.4464 57.0818 13.8092 57.309 14.0364L57.5919 13.7536ZM57.3955 13.01V7.235H56.9955V13.01H57.3955ZM57.1955 7.035H56.2955V7.435H57.1955V7.035ZM56.4955 7.235V6.905H56.0955V7.235H56.4955ZM56.2955 7.105C56.868 7.105 57.3214 6.94529 57.5843 6.56969L57.2566 6.34031C57.0995 6.56471 56.8029 6.705 56.2955 6.705V7.105ZM57.5836 6.57075C57.8276 6.22685 57.9998 5.73937 58.1122 5.12606L57.7187 5.05393C57.6112 5.64063 57.4533 6.06315 57.2574 6.33925L57.5836 6.57075ZM57.9336 5.28918L58.2636 5.25918L58.2274 4.86082L57.8974 4.89082L57.9336 5.28918ZM58.0455 5.06V6.905H58.4455V5.06H58.0455ZM66.6805 12.86L66.4844 12.8992L66.4846 12.9003L66.6805 12.86ZM67.8655 13.16L68.0444 13.0706L67.9549 12.8917L67.7761 12.9811L67.8655 13.16ZM67.9405 13.31L68.0605 13.47L68.194 13.3699L68.1194 13.2206L67.9405 13.31ZM67.6255 13.535L67.7305 13.7056L67.7393 13.6994L67.6255 13.535ZM66.8305 13.865L66.8966 14.0538L66.8305 13.865ZM65.6755 14.075L65.4809 14.1213L65.5175 14.275H65.6755V14.075ZM65.5255 12.065H65.7255L65.337 11.9981L65.5255 12.065ZM64.6555 13.58L64.5085 13.4443L64.5084 13.4445L64.6555 13.58ZM61.6855 13.655L61.5481 13.8005L61.5524 13.8043L61.6855 13.655ZM65.5255 9.845L65.5262 10.045L65.7255 10.0443V9.845H65.5255ZM65.2105 7.655L65.0355 7.75174L65.2105 7.655ZM63.2605 7.325L63.3854 7.48117L63.2605 7.325ZM62.8555 7.85L62.6677 7.78081L62.6654 7.78785L62.8555 7.85ZM62.3455 7.13L62.2561 6.95111L62.3455 7.13ZM65.9005 7.37L65.7658 7.51785L65.7676 7.51948L65.9005 7.37ZM62.5705 13.31L62.409 13.428L62.4113 13.431L62.5705 13.31ZM64.6105 13.085L64.7629 13.2145L64.7645 13.2127L64.6105 13.085ZM65.3005 11.735L65.1069 11.6847L65.1062 11.6874L65.3005 11.735ZM65.5255 10.19L65.7254 10.1975L65.7333 9.98812L65.5237 9.99001L65.5255 10.19ZM63.0655 10.805L62.945 10.6454L62.9436 10.6465L63.0655 10.805ZM66.3755 9.155V10.67H66.7755V9.155H66.3755ZM66.3755 10.67C66.3755 11.7761 66.4098 12.5264 66.4844 12.8992L66.8766 12.8208C66.8112 12.4936 66.7755 11.7839 66.7755 10.67H66.3755ZM66.4846 12.9003C66.5242 13.0925 66.5967 13.2615 66.7191 13.3839C66.8464 13.5112 67.0096 13.57 67.1905 13.57V13.17C67.1014 13.17 67.0447 13.1438 67.0019 13.1011C66.9543 13.0535 66.9068 12.9675 66.8764 12.8197L66.4846 12.9003ZM67.1905 13.57C67.4078 13.57 67.6668 13.483 67.9549 13.3389L67.7761 12.9811C67.5042 13.117 67.3132 13.17 67.1905 13.17V13.57ZM67.6866 13.2494L67.7616 13.3994L68.1194 13.2206L68.0444 13.0706L67.6866 13.2494ZM67.8205 13.15C67.7433 13.2079 67.6406 13.2813 67.5117 13.3706L67.7393 13.6994C67.8704 13.6087 67.9777 13.5321 68.0605 13.47L67.8205 13.15ZM67.5207 13.3647C67.4118 13.4317 67.1667 13.5354 66.7644 13.6762L66.8966 14.0538C67.2943 13.9146 67.5793 13.7983 67.7303 13.7053L67.5207 13.3647ZM66.7644 13.6762C66.3826 13.8099 66.02 13.875 65.6755 13.875V14.275C66.071 14.275 66.4784 14.2001 66.8966 14.0538L66.7644 13.6762ZM65.8701 14.0287C65.7758 13.6329 65.7255 12.9828 65.7255 12.065H65.3255C65.3255 12.9872 65.3752 13.6771 65.4809 14.1213L65.8701 14.0287ZM65.337 11.9981C65.124 12.5985 64.8464 13.0784 64.5085 13.4443L64.8025 13.7157C65.1847 13.3016 65.487 12.7715 65.714 12.1319L65.337 11.9981ZM64.5084 13.4445C64.2044 13.7746 63.7728 13.95 63.1855 13.95V14.35C63.8582 14.35 64.4066 14.1454 64.8026 13.7155L64.5084 13.4445ZM63.1855 13.95C62.5909 13.95 62.1429 13.795 61.8186 13.5057L61.5524 13.8043C61.9681 14.175 62.5201 14.35 63.1855 14.35V13.95ZM61.8228 13.5096C61.5097 13.2139 61.3455 12.8102 61.3455 12.275H60.9455C60.9455 12.8998 61.1413 13.4161 61.5482 13.8004L61.8228 13.5096ZM61.3455 12.275C61.3455 11.9037 61.4293 11.588 61.5905 11.3208C61.7519 11.0533 61.9975 10.8235 62.3375 10.6349C63.0235 10.2543 64.0781 10.05 65.5262 10.045L65.5248 9.645C64.0529 9.65004 62.9175 9.85569 62.1435 10.2851C61.7535 10.5015 61.4516 10.7767 61.248 11.1142C61.0442 11.452 60.9455 11.8413 60.9455 12.275H61.3455ZM65.7255 9.845V9.305H65.3255V9.845H65.7255ZM65.7255 9.305C65.7255 8.57089 65.6194 7.98134 65.3856 7.55826L65.0355 7.75174C65.2216 8.08866 65.3255 8.59911 65.3255 9.305H65.7255ZM65.3856 7.55826C65.1292 7.09445 64.657 6.885 64.0405 6.885V7.285C64.564 7.285 64.8718 7.45555 65.0355 7.75174L65.3856 7.55826ZM64.0405 6.885C63.6867 6.885 63.3791 6.97398 63.1356 7.16883L63.3854 7.48117C63.5419 7.35602 63.7543 7.285 64.0405 7.285V6.885ZM63.1356 7.16883C62.9146 7.34563 62.7534 7.54872 62.6678 7.78086L63.0432 7.91914C63.0977 7.77128 63.2064 7.62437 63.3854 7.48117L63.1356 7.16883ZM62.6654 7.78785C62.5032 8.28394 62.2954 8.43 62.0905 8.43V8.83C62.5656 8.83 62.8678 8.45606 63.0456 7.91215L62.6654 7.78785ZM62.0905 8.43C61.9626 8.43 61.9016 8.39521 61.8685 8.35813C61.8316 8.31669 61.7955 8.23445 61.7955 8.075H61.3955C61.3955 8.28555 61.442 8.48081 61.57 8.62437C61.7019 8.77229 61.8884 8.83 62.0905 8.83V8.43ZM61.7955 8.075C61.7955 7.80395 61.9668 7.54297 62.435 7.30889L62.2561 6.95111C61.7242 7.21703 61.3955 7.58605 61.3955 8.075H61.7955ZM62.435 7.30889C62.9007 7.07601 63.4734 6.955 64.1605 6.955V6.555C63.4276 6.555 62.7903 6.68399 62.2561 6.95111L62.435 7.30889ZM64.1605 6.955C64.8295 6.955 65.3587 7.1469 65.7658 7.51784L66.0352 7.22216C65.5423 6.7731 64.9115 6.555 64.1605 6.555V6.955ZM65.7676 7.51948C66.1626 7.87057 66.3755 8.40325 66.3755 9.155H66.7755C66.7755 8.32675 66.5384 7.66943 66.0334 7.22052L65.7676 7.51948ZM62.0855 12.335C62.0855 12.7583 62.1891 13.127 62.409 13.428L62.732 13.192C62.5719 12.973 62.4855 12.6917 62.4855 12.335H62.0855ZM62.4113 13.431C62.6501 13.7453 63.0188 13.885 63.4705 13.885V13.485C63.1022 13.485 62.8709 13.3747 62.7297 13.189L62.4113 13.431ZM63.4705 13.885C63.9634 13.885 64.3952 13.6471 64.7629 13.2145L64.4581 12.9555C64.1458 13.3229 63.8176 13.485 63.4705 13.485V13.885ZM64.7645 13.2127C65.1227 12.7807 65.3672 12.3036 65.4948 11.7826L65.1062 11.6874C64.9939 12.1464 64.7783 12.5693 64.4566 12.9573L64.7645 13.2127ZM65.4941 11.7853C65.6278 11.271 65.7048 10.7416 65.7254 10.1975L65.3257 10.1825C65.3062 10.6984 65.2332 11.199 65.1069 11.6847L65.4941 11.7853ZM65.5237 9.99001C64.397 10.0002 63.5254 10.2073 62.945 10.6454L63.186 10.9646C63.6656 10.6027 64.434 10.3998 65.5273 10.39L65.5237 9.99001ZM62.9436 10.6465C62.3777 11.0818 62.0855 11.6488 62.0855 12.335H62.4855C62.4855 11.7812 62.7133 11.3282 63.1875 10.9635L62.9436 10.6465ZM70.1653 4.955L70.3067 4.81358V4.81358L70.1653 4.955ZM71.3653 4.955L71.2239 4.81358V4.81358L71.3653 4.955ZM71.3353 6.755H71.5353V6.555H71.3353V6.755ZM71.5153 13.46L71.3363 13.5495L71.3395 13.5553L71.5153 13.46ZM72.5953 13.82L72.7926 13.7871L72.7647 13.62H72.5953V13.82ZM72.6253 14V14.2H72.8614L72.8226 13.9671L72.6253 14ZM68.9653 14L68.768 13.9671L68.7292 14.2H68.9653V14ZM68.9953 13.82V13.62H68.8259L68.798 13.7871L68.9953 13.82ZM70.0903 13.46L70.2662 13.5553L70.2678 13.5523L70.0903 13.46ZM70.1803 8.15L69.9827 8.18121L69.9838 8.18718L70.1803 8.15ZM69.9103 7.415L69.7752 7.56243L69.9103 7.415ZM68.8003 7.085L68.6035 7.12078L68.6334 7.285H68.8003V7.085ZM68.7703 6.92L68.7452 6.72158L68.5358 6.74806L68.5735 6.95578L68.7703 6.92ZM70.3067 4.81358C70.1723 4.67919 70.1103 4.52934 70.1103 4.355H69.7103C69.7103 4.64066 69.8183 4.89081 70.0239 5.09642L70.3067 4.81358ZM70.1103 4.355C70.1103 4.18066 70.1723 4.03081 70.3067 3.89642L70.0239 3.61358C69.8183 3.81919 69.7103 4.06934 69.7103 4.355H70.1103ZM70.3067 3.89642C70.4411 3.76204 70.591 3.7 70.7653 3.7V3.3C70.4797 3.3 70.2295 3.40796 70.0239 3.61358L70.3067 3.89642ZM70.7653 3.7C70.9397 3.7 71.0895 3.76204 71.2239 3.89642L71.5067 3.61358C71.3011 3.40796 71.051 3.3 70.7653 3.3V3.7ZM71.2239 3.89642C71.3583 4.03081 71.4203 4.18066 71.4203 4.355H71.8203C71.8203 4.06934 71.7123 3.81919 71.5067 3.61358L71.2239 3.89642ZM71.4203 4.355C71.4203 4.52934 71.3583 4.67919 71.2239 4.81358L71.5067 5.09642C71.7123 4.89081 71.8203 4.64066 71.8203 4.355H71.4203ZM71.2239 4.81358C71.0895 4.94796 70.9397 5.01 70.7653 5.01V5.41C71.051 5.41 71.3011 5.30204 71.5067 5.09642L71.2239 4.81358ZM70.7653 5.01C70.591 5.01 70.4411 4.94796 70.3067 4.81358L70.0239 5.09642C70.2295 5.30204 70.4797 5.41 70.7653 5.41V5.01ZM71.1353 6.755V11.525H71.5353V6.755H71.1353ZM71.1353 11.525C71.1353 12.0529 71.1504 12.4835 71.1812 12.8148C71.2111 13.1367 71.2579 13.3924 71.3364 13.5494L71.6942 13.3706C71.6527 13.2876 71.6095 13.1008 71.5795 12.7777C71.5503 12.464 71.5353 12.0471 71.5353 11.525H71.1353ZM71.3395 13.5553C71.4367 13.7348 71.6103 13.85 71.8196 13.9197C72.028 13.9892 72.2894 14.02 72.5953 14.02V13.62C72.3113 13.62 72.0976 13.5908 71.9461 13.5403C71.7953 13.49 71.7239 13.4252 71.6912 13.3647L71.3395 13.5553ZM72.398 13.8529L72.428 14.0329L72.8226 13.9671L72.7926 13.7871L72.398 13.8529ZM72.6253 13.8H68.9653V14.2H72.6253V13.8ZM69.1626 14.0329L69.1926 13.8529L68.798 13.7871L68.768 13.9671L69.1626 14.0329ZM68.9953 14.02C69.306 14.02 69.5709 13.9893 69.7815 13.92C69.9927 13.8506 70.1684 13.7357 70.2662 13.5553L69.9145 13.3647C69.8822 13.4243 69.8104 13.4894 69.6566 13.54C69.5023 13.5907 69.2846 13.62 68.9953 13.62V14.02ZM70.2678 13.5523C70.3522 13.3899 70.403 13.1289 70.4356 12.801C70.469 12.4642 70.4853 12.0281 70.4853 11.495H70.0853C70.0853 12.0219 70.0691 12.4433 70.0375 12.7615C70.0051 13.0886 69.9584 13.2801 69.9129 13.3677L70.2678 13.5523ZM70.4853 11.495V10.445H70.0853V11.495H70.4853ZM70.4853 10.445C70.4853 9.28857 70.4509 8.50444 70.3768 8.11282L69.9838 8.18718C70.0497 8.53556 70.0853 9.28143 70.0853 10.445H70.4853ZM70.3779 8.11881C70.3467 7.92137 70.3066 7.7513 70.2555 7.61229C70.2055 7.47597 70.1391 7.35337 70.0455 7.26757L69.7752 7.56243C69.8016 7.58663 69.8402 7.64153 69.8801 7.75021C69.919 7.8562 69.9539 7.99863 69.9828 8.18119L70.3779 8.11881ZM70.0455 7.26757C69.7531 6.99959 69.3244 6.885 68.8003 6.885V7.285C69.2762 7.285 69.5875 7.39041 69.7752 7.56243L70.0455 7.26757ZM68.9971 7.04922L68.9671 6.88422L68.5735 6.95578L68.6035 7.12078L68.9971 7.04922ZM68.7954 7.11842C69.6574 7.00943 70.5041 6.955 71.3353 6.955V6.555C70.4866 6.555 69.6232 6.61057 68.7452 6.72158L68.7954 7.11842ZM75.8261 2.96H76.0261V2.76H75.8261V2.96ZM76.0211 13.445L75.8421 13.5345L75.8436 13.5373L76.0211 13.445ZM77.1011 13.82L77.2983 13.7871L77.2705 13.62H77.1011V13.82ZM77.1311 14V14.2H77.3671L77.3283 13.9671L77.1311 14ZM73.4561 14L73.2588 13.9671L73.22 14.2H73.4561V14ZM73.4861 13.82V13.62H73.3166L73.2888 13.7871L73.4861 13.82ZM74.5811 13.445L74.4036 13.3527L74.5811 13.445ZM74.5961 3.65L74.7735 3.55742L74.7697 3.55077L74.5961 3.65ZM74.3711 3.44L74.4784 3.27127V3.27127L74.3711 3.44ZM74.0111 3.32L73.9944 3.51931L73.9957 3.51941L74.0111 3.32ZM73.4861 3.305L73.2893 3.34078L73.3191 3.505H73.4861V3.305ZM73.4561 3.14L73.4245 2.94251L73.2227 2.97479L73.2593 3.17578L73.4561 3.14ZM75.6261 2.96V11.39H76.0261V2.96H75.6261ZM75.6261 11.39C75.6261 11.948 75.6424 12.4038 75.6757 12.7551C75.7082 13.0977 75.7588 13.3678 75.8422 13.5344L76.1999 13.3556C76.1533 13.2622 76.1064 13.0598 76.0739 12.7174C76.0423 12.3837 76.0261 11.942 76.0261 11.39H75.6261ZM75.8436 13.5373C75.9395 13.7216 76.112 13.8419 76.323 13.9152C76.5323 13.9879 76.7946 14.02 77.1011 14.02V13.62C76.8175 13.62 76.6048 13.5896 76.4542 13.5373C76.3051 13.4856 76.2326 13.4184 76.1985 13.3527L75.8436 13.5373ZM76.9038 13.8529L76.9338 14.0329L77.3283 13.9671L77.2983 13.7871L76.9038 13.8529ZM77.1311 13.8H73.4561V14.2H77.1311V13.8ZM73.6533 14.0329L73.6833 13.8529L73.2888 13.7871L73.2588 13.9671L73.6533 14.0329ZM73.4861 14.02C73.7973 14.02 74.063 13.9879 74.2746 13.9155C74.4875 13.8426 74.6622 13.7225 74.7585 13.5373L74.4036 13.3527C74.3699 13.4175 74.2971 13.4849 74.145 13.537C73.9916 13.5896 73.7748 13.62 73.4861 13.62V14.02ZM74.7585 13.5373C74.8434 13.3739 74.894 13.1042 74.9264 12.7626C74.9598 12.4112 74.9761 11.9529 74.9761 11.39H74.5761C74.5761 11.9471 74.5599 12.3913 74.5282 12.7249C74.4956 13.0683 74.4487 13.2661 74.4036 13.3527L74.7585 13.5373ZM74.9761 11.39V5.66H74.5761V11.39H74.9761ZM74.9761 5.66C74.9761 5.10233 74.961 4.65065 74.9303 4.30716C74.9149 4.13546 74.8953 3.98777 74.8709 3.86578C74.8471 3.74662 74.8164 3.63991 74.7734 3.55749L74.4187 3.74251C74.4357 3.77508 74.4575 3.83837 74.4787 3.94422C74.4993 4.04723 74.5172 4.17954 74.5319 4.34284C74.5611 4.66935 74.5761 5.10767 74.5761 5.66H74.9761ZM74.7697 3.55077C74.7066 3.44031 74.6008 3.34911 74.4784 3.27127L74.2637 3.60873C74.3614 3.67089 74.4055 3.71969 74.4224 3.74923L74.7697 3.55077ZM74.4784 3.27127C74.3407 3.18364 74.1891 3.13311 74.0264 3.12059L73.9957 3.51941C74.093 3.52689 74.1814 3.55636 74.2637 3.60873L74.4784 3.27127ZM74.0277 3.12069C73.8992 3.10999 73.7176 3.105 73.4861 3.105V3.505C73.7145 3.505 73.8829 3.51001 73.9944 3.51931L74.0277 3.12069ZM73.6828 3.26922L73.6528 3.10422L73.2593 3.17578L73.2893 3.34078L73.6828 3.26922ZM73.4877 3.33749C74.2263 3.2193 75.0057 3.16 75.8261 3.16V2.76C74.9864 2.76 74.1858 2.82069 73.4245 2.94251L73.4877 3.33749ZM78.6581 11.765H78.8581V11.5956L78.691 11.5677L78.6581 11.765ZM79.1831 13.235L79.0459 13.3805L79.0482 13.3826L79.1831 13.235ZM81.6131 13.385L81.7314 13.5463L81.6131 13.385ZM81.6731 11.57L81.5346 11.7143L81.5375 11.717L81.6731 11.57ZM79.6631 10.52L79.5819 10.7028L79.5837 10.7036L79.6631 10.52ZM78.7331 9.815L78.5774 9.94057L78.5799 9.94352L78.7331 9.815ZM79.0481 7.28L79.167 7.44084L79.1676 7.44041L79.0481 7.28ZM82.7081 7.175H82.9081V7.05894L82.8074 7.00135L82.7081 7.175ZM82.5281 9.095L82.4796 9.28903L82.694 9.34263L82.726 9.12396L82.5281 9.095ZM82.3481 9.05H82.1481V9.20615L82.2996 9.24403L82.3481 9.05ZM79.7831 7.49L79.6539 7.33729L79.651 7.33986L79.7831 7.49ZM79.7831 9.29L79.6476 9.43731L79.6539 9.44268L79.7831 9.29ZM80.7131 9.845L80.6362 10.0296L80.7131 9.845ZM81.7931 10.325L81.7077 10.5059L81.7137 10.5086L81.7931 10.325ZM82.7231 11.03L82.5673 11.1556L82.572 11.161L82.7231 11.03ZM82.3631 13.625L82.2484 13.4612L82.3631 13.625ZM78.3281 13.505H78.1281V13.6036L78.2063 13.6636L78.3281 13.505ZM78.4781 11.735L78.511 11.5377L78.3099 11.5042L78.2803 11.7059L78.4781 11.735ZM78.4581 11.765C78.4581 12.45 78.6433 13.0009 79.0459 13.3805L79.3203 13.0895C79.023 12.8091 78.8581 12.38 78.8581 11.765H78.4581ZM79.0482 13.3826C79.4355 13.7368 79.8988 13.915 80.4281 13.915V13.515C79.9974 13.515 79.6307 13.3732 79.3181 13.0874L79.0482 13.3826ZM80.4281 13.915C80.9472 13.915 81.3877 13.7984 81.7314 13.5463L81.4949 13.2237C81.2386 13.4116 80.889 13.515 80.4281 13.515V13.915ZM81.7314 13.5463C82.0824 13.2889 82.2631 12.9341 82.2631 12.5H81.8631C81.8631 12.8059 81.7438 13.0411 81.4949 13.2237L81.7314 13.5463ZM82.2631 12.5C82.2631 12.0688 82.1131 11.7039 81.8088 11.423L81.5375 11.717C81.7532 11.9161 81.8631 12.1712 81.8631 12.5H82.2631ZM81.8116 11.4257C81.5417 11.1666 81.215 10.9587 80.835 10.8004L80.6812 11.1696C81.0212 11.3113 81.3046 11.4934 81.5346 11.7143L81.8116 11.4257ZM80.835 10.8004C80.4759 10.6507 80.1117 10.4961 79.7425 10.3364L79.5837 10.7036C79.9545 10.8639 80.3204 11.0193 80.6812 11.1696L80.835 10.8004ZM79.7444 10.3372C79.4129 10.1899 79.1273 9.9738 78.8864 9.68648L78.5799 9.94352C78.8589 10.2762 79.1933 10.5301 79.5819 10.7028L79.7444 10.3372ZM78.8888 9.68945C78.6752 9.42462 78.5581 9.05841 78.5581 8.57H78.1581C78.1581 9.12159 78.291 9.58538 78.5774 9.94055L78.8888 9.68945ZM78.5581 8.57C78.5581 8.12045 78.7521 7.74749 79.167 7.44083L78.9292 7.11916C78.4241 7.49251 78.1581 7.97955 78.1581 8.57H78.5581ZM79.1676 7.44041C79.6016 7.11722 80.0993 6.955 80.6681 6.955V6.555C80.017 6.555 79.4347 6.74278 78.9287 7.11959L79.1676 7.44041ZM80.6681 6.955C81.5206 6.955 82.1612 7.09283 82.6089 7.34865L82.8074 7.00135C82.275 6.69717 81.5557 6.555 80.6681 6.555V6.955ZM82.5081 7.175C82.5081 7.62054 82.4498 8.24933 82.3302 9.06604L82.726 9.12396C82.8465 8.30067 82.9081 7.64946 82.9081 7.175H82.5081ZM82.5766 8.90097L82.3966 8.85597L82.2996 9.24403L82.4796 9.28903L82.5766 8.90097ZM82.5481 9.05C82.5481 8.36565 82.3934 7.82241 82.0395 7.46858L81.7567 7.75142C82.0029 7.99759 82.1481 8.41435 82.1481 9.05H82.5481ZM82.0395 7.46858C81.7015 7.13051 81.2854 6.96 80.8031 6.96V7.36C81.1809 7.36 81.4948 7.48949 81.7567 7.75142L82.0395 7.46858ZM80.8031 6.96C80.3472 6.96 79.9579 7.08012 79.6539 7.33732L79.9123 7.64268C80.1283 7.45988 80.419 7.36 80.8031 7.36V6.96ZM79.651 7.33986C79.3515 7.60339 79.2081 7.96152 79.2081 8.39H79.6081C79.6081 8.05847 79.7147 7.81661 79.9153 7.64014L79.651 7.33986ZM79.2081 8.39C79.2081 8.81036 79.3526 9.1657 79.6477 9.43719L79.9185 9.14281C79.7136 8.9543 79.6081 8.70963 79.6081 8.39H79.2081ZM79.6539 9.44268C79.9317 9.67771 80.2599 9.87284 80.6362 10.0296L80.79 9.66038C80.4463 9.51716 80.1545 9.34229 79.9123 9.13732L79.6539 9.44268ZM80.6362 10.0296C80.9933 10.1784 81.3505 10.3371 81.7077 10.5058L81.8785 10.1441C81.5158 9.97286 81.153 9.8116 80.79 9.66038L80.6362 10.0296ZM81.7137 10.5086C82.0544 10.6559 82.3381 10.8711 82.5674 11.1556L82.8788 10.9044C82.6082 10.5689 82.2719 10.3141 81.8725 10.1414L81.7137 10.5086ZM82.572 11.161C82.797 11.4206 82.9131 11.7425 82.9131 12.14H83.3131C83.3131 11.6575 83.1693 11.2394 82.8743 10.899L82.572 11.161ZM82.9131 12.14C82.9131 12.7185 82.692 13.1507 82.2484 13.4612L82.4778 13.7888C83.0343 13.3993 83.3131 12.8415 83.3131 12.14H82.9131ZM82.2484 13.4612C81.7918 13.7808 81.1759 13.95 80.3831 13.95V14.35C81.2303 14.35 81.9344 14.1692 82.4778 13.7888L82.2484 13.4612ZM80.3831 13.95C79.6104 13.95 78.97 13.7457 78.4499 13.3464L78.2063 13.6636C78.8063 14.1243 79.5359 14.35 80.3831 14.35V13.95ZM78.5281 13.505C78.5281 13.0176 78.5769 12.4378 78.676 11.7641L78.2803 11.7059C78.1793 12.3922 78.1281 12.9924 78.1281 13.505H78.5281ZM78.4452 11.9323L78.6252 11.9623L78.691 11.5677L78.511 11.5377L78.4452 11.9323Z" fill="white" mask="url(#path-1-outside-1_10110_154)"/>
<path fill-rule="evenodd" clip-rule="evenodd" d="M99.3332 8.66683H107.243L104.821 11.5735C104.585 11.8562 104.624 12.2768 104.907 12.5122C105.19 12.7482 105.61 12.7095 105.846 12.4268L109.179 8.42683C109.205 8.3955 109.218 8.35883 109.237 8.32416C109.253 8.29616 109.273 8.27216 109.285 8.2415C109.315 8.16483 109.333 8.08416 109.333 8.00283C109.333 8.00216 109.333 8.00083 109.333 8.00016C109.333 7.9995 109.333 7.99816 109.333 7.9975C109.333 7.91616 109.315 7.8355 109.285 7.75883C109.273 7.72816 109.253 7.70416 109.237 7.67616C109.218 7.6415 109.205 7.60483 109.179 7.5735L105.846 3.5735C105.713 3.4155 105.524 3.3335 105.333 3.3335C105.183 3.3335 105.031 3.38416 104.907 3.48816C104.624 3.7235 104.585 4.14416 104.821 4.42683L107.243 7.3335H99.3332C98.9652 7.3335 98.6665 7.63216 98.6665 8.00016C98.6665 8.36816 98.9652 8.66683 99.3332 8.66683Z" fill="white"/>
<mask id="mask0_10110_154" style="mask-type:luminance" maskUnits="userSpaceOnUse" x="98" y="3" width="12" height="10">
<path fill-rule="evenodd" clip-rule="evenodd" d="M99.3332 8.66683H107.243L104.821 11.5735C104.585 11.8562 104.624 12.2768 104.907 12.5122C105.19 12.7482 105.61 12.7095 105.846 12.4268L109.179 8.42683C109.205 8.3955 109.218 8.35883 109.237 8.32416C109.253 8.29616 109.273 8.27216 109.285 8.2415C109.315 8.16483 109.333 8.08416 109.333 8.00283C109.333 8.00216 109.333 8.00083 109.333 8.00016C109.333 7.9995 109.333 7.99816 109.333 7.9975C109.333 7.91616 109.315 7.8355 109.285 7.75883C109.273 7.72816 109.253 7.70416 109.237 7.67616C109.218 7.6415 109.205 7.60483 109.179 7.5735L105.846 3.5735C105.713 3.4155 105.524 3.3335 105.333 3.3335C105.183 3.3335 105.031 3.38416 104.907 3.48816C104.624 3.7235 104.585 4.14416 104.821 4.42683L107.243 7.3335H99.3332C98.9652 7.3335 98.6665 7.63216 98.6665 8.00016C98.6665 8.36816 98.9652 8.66683 99.3332 8.66683Z" fill="white"/>
</mask>
<g mask="url(#mask0_10110_154)">
<rect x="96" width="16" height="16" fill="white"/>
</g>
</svg>
